<?xml version="1.0" encoding="UTF-8"?>
<svg xmlns="http://www.w3.org/2000/svg" version="1.1" viewBox="0 0 316.5 324.2">
  <defs>
    <style>
      .cls-1 {
        opacity: .5;
      }

      .cls-1, .cls-2, .cls-3 {
        fill: #ededed;
      }

      .cls-1, .cls-2, .cls-4 {
        isolation: isolate;
      }

      .cls-5 {
        fill: #be1622;
      }

      .cls-2 {
        opacity: .4;
      }

      .cls-4 {
        fill: none;
        opacity: .5;
        stroke: #3c3c3b;
        stroke-miterlimit: 10;
        stroke-width: .5px;
      }
    </style>
  </defs>
  <!-- Generator: Adobe Illustrator 28.7.1, SVG Export Plug-In . SVG Version: 1.2.0 Build 142)  -->
  <g>
    <g id="Lager_1">
      <g id="Lager_2">
        <circle cx="157.9" cy="159.5" r="155"/>
        <path class="cls-2" d="M149.4,212c-18,67,14.5,102.9-10,101-23.6-1.8-73.2-10.1-108.8-65C4.2,207.4,1.4,172.2,2.9,171c.7-.5-4.3-41.4,5.6-34.9,48.8,32,91.1,2.1,97.7,12.1,36.4,54.9,43.2,63.8,43.2,63.8Z"/>
        <path class="cls-3" d="M118.4,174"/>
        <path class="cls-1" d="M165.7,105.6c24.4-65.4-14.5-102.9,10-101,23.5,1.8,73.1,10.2,108.8,65.1,26.4,40.6,29.2,75.9,27.7,76.9-.7.5,4.3,41.4-5.6,34.9-48.8-32-80.1-1.5-94.9-10.9-47-29.9-46-65-46-65Z"/>
        <circle class="cls-5" cx="157.9" cy="159.5" r="53.4"/>
        <circle class="cls-4" cx="157.9" cy="159.5" r="122.5"/>
        <circle class="cls-4" cx="157.9" cy="159.5" r="95.8"/>
        <circle class="cls-4" cx="157.9" cy="159.5" r="143"/>
        <g>
          <path d="M136.6,159.3l1.4-6.8v-.2c0-.2-.1-.4-.5-.6s-.3-.2-.3-.3h0v-.7c0-.1.1-.1.2-.1h2.2c.1,0,.2,0,.2.1v.9q0,.1-.1.2c-.2.1-.3.2-.3.3s-.1.3-.2.6l-2.3,11.4v.7c-.1.1-.2.1-.3.1h-1.8q-.1,0-.2-.1c0-.1-.1-.3-.2-.7l-2.3-11.7c0-.3-.2-.5-.4-.6-.1-.1-.2-.1-.2-.2v-.2h0v-.3h0v-.2c0-.2.1-.3.2-.3h4c.1,0,.2.1.2.4v.5c0,.1-.1.1-.2.2-.3.1-.4.3-.4.6v.2l1.3,6.8Z"/>
          <path d="M140.2,153.7v-.6c0-.2.1-.3.4-.3h2.8c.2,0,.3.1.3.3v10.4s.1.1.2.1c.2.1.3.3.3.5v.6c0,.1-.1.1-.3.1h-3.4q-.1,0-.2-.1c0-.1,0-.2,0-.5s.1-.5.2-.5c.2-.1.3-.2.3-.4v-8.8c0-.3-.1-.5-.4-.6-.2,0-.2-.1-.2-.2ZM142.6,150.3c.7,0,1,.2,1,.7s-.2.6-.7.9-.9.4-1.5.4-1.1-.2-1.1-.7.2-.7.8-.9,1-.4,1.5-.4Z"/>
          <path d="M148.2,154c.7-.9,1.5-1.3,2.4-1.3s1.1.2,1.4.6c.3.4.5.9.5,1.5v8.4c0,.2.1.3.2.4s.2.3.2.6,0,.4-.1.5-.1.1-.3.1h-2.5c-.4-.3-.5-.7-.5-1.2v-8.4c0-.5-.2-.7-.6-.7s-.5.1-.8.4v8.2c0,.2.1.4.3.5.1.1.2.2.2.4v.5c0,.2-.1.3-.4.3h-3c-.1,0-.2,0-.3-.1s-.1-.1-.1-.3v-.3c0-.2,0-.3.2-.4l.3-.3c.1-.1.1-.3.1-.6v-8.6c0-.2-.1-.4-.3-.5-.1,0-.2-.1-.2-.3v-.4c0-.2.1-.3.2-.3h3.1v1.3h0Z"/>
          <path d="M157.9,159.5l.9-4.6v-.2c0-.2.1-.3.1-.3,0-.1-.1-.3-.3-.5s-.2-.2-.2-.3v-.6c0-.2.1-.3.2-.3h1.5c.2,0,.3,0,.4.1s.1.2.1.5v.3l-.2.2c-.2.1-.3.4-.4.8l-1.5,7.7c-.3,1.4-.5,2.2-.6,2.6s-.3.7-.6,1-.6.5-.9.7-.8.2-1.2.2-.9-.1-1.2-.4-.4-.6-.4-1,.1-.5.3-.7.4-.2.7-.2.7.2.9.7c.1.2.2.4.4.4.3,0,.5-.2.5-.5s-.1-.4-.2-1l-1.9-9.1c-.1-.4-.2-.7-.2-.9s-.1-.3-.3-.3-.2-.2-.2-.3v-.5c0-.2,0-.3.1-.3s.1-.1.3-.1h3.1c.2,0,.3,0,.3.1s.1.1.1.3v.6c0,.1-.1.2-.2.2-.2.1-.3.2-.3.4s0,.3.1.5l.8,4.8Z"/>
          <path d="M161.2,151.3v-.4c0-.2.1-.3.4-.3h3c.1,0,.1.1.1.3v12.3c0,.3.1.4.3.5.1,0,.2.1.2.3v.5c0,.2-.1.3-.4.3h-3.2c-.2,0-.3-.1-.3-.3v-.5c0-.2.1-.4.3-.5.1-.1.2-.1.2-.2v-11.2c0-.2-.1-.3-.2-.4-.4,0-.4-.1-.4-.4Z"/>
          <path d="M172.7,159.7h.8c.2,0,.3,0,.4.1s.1.2.1.4v.5c0,.1,0,.2-.1.3s-.2.1-.3.1h-.8v1.6c0,.4.2.7.5.9.2.1.3.3.3.5v.4c0,.1,0,.2-.1.2h-4c-.2,0-.3,0-.3-.1s-.1-.3-.1-.6.1-.4.3-.5.3-.3.3-.5v-2h-3.5c-.2,0-.3,0-.3-.1v-1.5s.1-.3.4-.6l4.9-7.9.3-.3c.1,0,.4-.1.7-.1s.5,0,.6.1.1.1.1.3l-.2,8.8h0ZM169.6,155.4l-2.7,4.3h2.7v-4.3Z"/>
          <path d="M175.1,154.2c-.1,0-.1-.1-.2-.1-.1-.1-.2-.1-.3-.2s-.1-.2-.1-.4v-.3c0-.2,0-.3.1-.4,0-.1.2-.1.3-.1h2.7c.1,0,.2,0,.2.1v9c0,.8.2,1.1.6,1.1s.6-.1.7-.4v-8.1c0-.2-.1-.4-.3-.5-.1-.1-.2-.1-.2-.2v-.7c0-.2.1-.2.3-.2h3.1v10.4c0,.2.1.3.2.4.2.1.3.3.3.5v.6s-.1.1-.3.1h-2.7c-.2,0-.3,0-.4-.1s-.1-.2-.1-.4v-.6c-.9.8-1.7,1.2-2.4,1.2s-1-.2-1.4-.5c-.4-.4-.5-1.1-.5-2.1l.4-8.1h0Z"/>
        </g>
      </g>
    </g>
  </g>
</svg>